<svg id="Capa_1" data-name="Capa 1" xmlns="http://www.w3.org/2000/svg" viewBox="0 0 913 215"><defs><style>.cls-1{opacity:0.5;}.cls-2{fill:none;stroke:#fff;stroke-miterlimit:10;stroke-width:0.75px;}</style></defs><g class="cls-1"><path class="cls-2" d="M40.78,196.92H16.86V48.71q0-30.63,28.65-30.63H63.44q28.65,0,28.65,30.63V196.92H68.18V131.41H40.78Zm27.4-87.18V50.21q0-10.47-10.47-10.46H51.24q-10.47,0-10.46,10.46v59.53Z"/><path class="cls-2" d="M184.75,155.08v11.45q0,30.41-28.65,30.39H140.66q-28.65,0-28.65-30.39V48.47q0-30.39,28.65-30.39H156.1q28.65,0,28.65,30.39V68.64H160.84V50.21q0-10.47-10.72-10.46h-4.73q-9.46,0-9.46,10.46V164.79q0,10.47,9.46,10.46h6q9.47,0,9.47-10.46v-9.71Z"/><path class="cls-2" d="M241.54,39.75V196.92H217.63V39.75H194.71V18.08h69.75V39.75Z"/><path class="cls-2" d="M278.15,196.92V18.08h23.92V196.92Z"/><path class="cls-2" d="M402,18.08,373.06,196.92h-28.4L315.76,18.08h23.67l19.43,136.5,19.43-136.5Z"/><path class="cls-2" d="M415.65,196.92V18.08h23.91V196.92Z"/><path class="cls-2" d="M462,196.92V18.08h41.6q33.62,0,33.62,34.37V171q0,25.9-28.64,25.9Zm23.91-21.67h17.94q9.45,0,9.46-8V52.7q0-12.95-10.71-13H485.89Z"/><path class="cls-2" d="M581,196.92H557.13V48.71q0-30.63,28.65-30.63h17.93q28.63,0,28.65,30.63V196.92H608.44V131.41H581Zm27.4-87.18V50.21q0-10.47-10.46-10.46H591.5Q581,39.75,581,50.21v59.53Z"/><path class="cls-2" d="M653.53,196.92V18.08h41.59q33.63,0,33.63,34.37V171q0,25.9-28.64,25.9Zm23.91-21.67h17.93q9.46,0,9.47-8V52.7q0-12.95-10.71-13H677.44Z"/><path class="cls-2" d="M749.92,196.92V18.08h59.29V39.75H773.83v54.3h31.39v21.67H773.83v59.53h35.38v21.67Z"/><path class="cls-2" d="M872.22,66.15V50.46q0-10.71-10.46-10.71H858q-10.23,0-10.22,10.71V80.1c0,3.32.66,5.57,2,6.73a50.26,50.26,0,0,0,6.47,4.48L879,103.51a105.58,105.58,0,0,1,10.59,6.61,16.93,16.93,0,0,1,4.85,5.72q1.74,3.38,1.75,12.83v38.11q0,30.15-28.9,30.14H852.55q-28.65,0-28.65-32.88v-9h23.91v9.71q0,10.47,10.71,10.46h4.24q9.47,0,9.46-10.46V134.4q0-5-2-6.72a51.11,51.11,0,0,0-6.48-4.49l-22.66-12.7a70.73,70.73,0,0,1-10.84-6.73,15.36,15.36,0,0,1-4.86-7.1,35.82,35.82,0,0,1-1.49-11.33V48.71q0-30.63,28.65-30.63h14.94q28.63,0,28.65,30.63V66.15Z"/></g></svg>