<?xml version="1.0" encoding="UTF-8"?>
<svg id="Capa_1" data-name="Capa 1" xmlns="http://www.w3.org/2000/svg" viewBox="0 0 620.53 891.26">
  <defs>
    <style>
      .cls-1 {
        opacity: .5;
      }

      .cls-2 {
        fill: #f99450;
        stroke-width: 0px;
      }
    </style>
  </defs>
  <g class="cls-1">
    <g>
      <polygon class="cls-2" points="35.78 1060.97 35.78 980.9 312.95 867.16 584.74 980.82 584.74 1060.83 312.68 947.34 35.78 1060.97"/>
      <polygon class="cls-2" points="35.78 912.81 35.78 832.74 312.95 719 584.74 832.67 584.74 912.67 312.68 799.18 35.78 912.81"/>
      <polygon class="cls-2" points="35.78 764.66 35.78 684.58 312.95 570.85 584.74 684.51 584.74 764.52 312.68 651.03 35.78 764.66"/>
      <polygon class="cls-2" points="35.78 616.5 35.78 536.43 312.94 422.69 584.74 536.35 584.74 616.36 312.68 502.87 35.78 616.5"/>
    </g>
    <g>
      <polygon class="cls-2" points="35.78 466.28 35.78 386.21 312.94 272.47 584.74 386.14 584.74 466.14 312.68 352.66 35.78 466.28"/>
      <polygon class="cls-2" points="35.78 318.13 35.78 238.05 312.94 124.32 584.74 237.98 584.74 317.99 312.68 204.5 35.78 318.13"/>
      <polygon class="cls-2" points="35.78 169.97 35.78 89.9 312.94 -23.84 584.74 89.82 584.74 169.83 312.68 56.34 35.78 169.97"/>
      <polygon class="cls-2" points="35.78 21.81 35.78 -58.26 312.94 -172 584.74 -58.33 584.74 21.67 312.68 -91.82 35.78 21.81"/>
    </g>
  </g>
</svg>