<svg id="Capa_1" data-name="Capa 1" xmlns="http://www.w3.org/2000/svg" viewBox="0 0 2556.1 105.19"><defs><style>.cls-1{fill:#fff;}.cls-2{fill:#e9501d;}</style></defs><path class="cls-1" d="M2499.5,18.32V-7a15.47,15.47,0,0,1,2.93-.53c14.06.12,28.15-.1,42.19.6,8.28.41,11.73,5.4,11.46,14.08-.21,6.85-4,10.71-12.11,11-14.06.49-28.13.48-42.19.65A11.44,11.44,0,0,1,2499.5,18.32Z" transform="translate(0 7.53)"/><path class="cls-2" d="M450.54,60.33l-33.32-61H356.34l-33.1,61.18L290-.69,245-.28l0,80.82L200.87-.27H165l-45.28,83V-.21H90.85l-.1,36.49H28.6V-.27H0V96.87H28.7V58H90.79V97h52.37l40-73.71,18.18,33.51h-22.6l9.75,17.71,22.94.29L223.28,97l50.87,0,.13-68.95,39,69.36L333,97l39.35-70-.07,69.84h29.44l-.25-69.49L440.16,97l20.12.39L500,26.12l-.08,70.64h28.54v-97L484.28-.69ZM873.89,15.55h.7c8.72,0,17-3.51,22.54-11.5-7.45,5.25-14.8,7.79-22.89,7.71a40.24,40.24,0,0,1-23.69-7.71C856.06,12,865.17,15.52,873.89,15.55ZM540,97.08H644.18V73.85H569.35V57.62H605L594.39,38.06h-25V22.6h74.91V0H540ZM906.84,50.56,955.22,3.47l-33.3,0-30.35,32.8ZM748.18,1.64A86.39,86.39,0,0,0,732.48,0c-23.92-.23-47.85-.18-71.77-.22h-4.59V97.11h28.43v-26h44.91c8.56,0,12.12,3.14,12.77,11.64.36,4.75.06,9.54.06,14.38h28.5c0-7.38.3-14.28-.09-21.14-.34-5.83-2.1-11.31-7.6-14.6-1.85-1.11-3.85-1.94-6.41-3.22,8.7-2.88,13.37-8.64,14.81-17a49.44,49.44,0,0,0,.8-8.31C772.32,17.48,768.08,5.55,748.18,1.64Zm-6.9,35.74c-.22,6.85-4,10.71-12.12,11l-44.47.08V23.74l45.12-.44C738.1,23.71,741.55,28.7,741.28,37.38Zm62.77,60,31.29-.08L874.2,59,911,97.66l32.71-.32L874.09,25.8Zm52-61.32L825.76,3.67l-33.13-.23,48.68,47.33Z" transform="translate(0 7.53)"/></svg>