<svg id="Capa_1" data-name="Capa 1" xmlns="http://www.w3.org/2000/svg" viewBox="0 0 1001.65 158.2"><defs><style>.cls-1{fill:#e9501d;}</style></defs><path class="cls-1" d="M475.75,90.94l-33.32-61H381.55l-33.1,61.19L315.2,29.92l-45,.42,0,80.81L226.08,30.34H190.26l-45.29,83V30.41H116.06L116,66.9H53.81V30.34H25.22v97.14H53.91V88.65H116v39h52.37l40-73.71,18.18,33.51H204l9.75,17.72,22.94.28,11.82,22.2h50.87l.13-68.95,39,69.36,19.77-.4,39.35-70-.07,69.83H427L426.73,58l38.65,69.67,20.11.4,39.71-71.3-.08,70.64h28.53v-97l-44.16-.43ZM899.11,46.17h.69c8.73,0,17-3.51,22.55-11.5-7.45,5.25-14.8,7.79-22.89,7.7a40.13,40.13,0,0,1-23.69-7.7C881.28,42.66,890.38,46.13,899.11,46.17ZM565.21,127.7H669.39V104.47H594.56V88.24h35.6L619.61,68.67h-25V53.22h74.9V30.62H565.21ZM932.06,81.18l48.37-47.09-33.29,0L916.78,66.86ZM773.4,32.26a85.62,85.62,0,0,0-15.71-1.69c-23.92-.23-47.84-.19-71.76-.22h-4.6v97.38h28.44v-26h44.91c8.56,0,12.12,3.14,12.76,11.64.36,4.74.07,9.54.07,14.38H796c0-7.38.3-14.28-.09-21.14-.33-5.84-2.1-11.32-7.59-14.6-1.85-1.11-3.86-2-6.41-3.22,8.7-2.88,13.37-8.64,14.81-17a49.44,49.44,0,0,0,.8-8.31C797.53,48.1,793.3,36.16,773.4,32.26ZM766.49,68c-.21,6.85-4,10.71-12.11,11l-44.47.07V54.36L755,53.92C763.31,54.33,766.76,59.32,766.49,68Zm62.77,60,31.29-.08L899.41,89.6l36.79,38.67,32.7-.31L899.31,56.42Zm52-61.32L851,34.29l-33.14-.23,48.69,47.33Z"/></svg>