<svg xmlns="http://www.w3.org/2000/svg" xmlns:xlink="http://www.w3.org/1999/xlink" width="6912" zoomAndPan="magnify" viewBox="0 0 5184 2592.000001" height="3456" preserveAspectRatio="xMidYMid meet" version="1.0"><defs><filter x="0%" y="0%" width="100%" height="100%" id="fa178a7524"><feColorMatrix values="0 0 0 0 1 0 0 0 0 1 0 0 0 0 1 0 0 0 1 0" color-interpolation-filters="sRGB"/></filter><mask id="fcf512bcb6"><g filter="url(#fa178a7524)"><rect x="-518.4" width="6220.8" fill="#000000" y="-259.2" height="3110.400001" fill-opacity="0.32"/></g></mask><clipPath id="ff594cff19"><path d="M 0.886719 142 L 4605.191406 142 L 4605.191406 1218 L 0.886719 1218 Z M 0.886719 142 " clip-rule="nonzero"/></clipPath><clipPath id="36ba1bfc5e"><rect x="0" width="4606" y="0" height="1391"/></clipPath></defs><path fill="#ffffff" d="M 1 0 L 5183 0 L 5183 2591 L 1 2591 Z M 1 0 " fill-opacity="1" fill-rule="nonzero"/><path fill="#ffffff" d="M 1 0 L 5183 0 L 5183 2591 L 1 2591 Z M 1 0 " fill-opacity="1" fill-rule="nonzero"/><g mask="url(#fcf512bcb6)"><g transform="matrix(1, 0, 0, 1, 288, 593)"><g clip-path="url(#36ba1bfc5e)"><g clip-path="url(#ff594cff19)"><path stroke-linecap="butt" transform="matrix(14.478087, 0, 0, 14.478087, -27.900359, -202.38011)" fill="none" stroke-linejoin="miter" d="M 23.985465 59.857516 L 23.985465 28.87373 L 32.576304 28.87373 L 32.576304 93.000006 L 23.985465 93.000006 L 23.985465 80.222614 L 14.805913 51.026821 L 14.805913 93.000006 L 6.215075 93.000006 L 6.215075 28.87373 L 14.805913 28.87373 Z M 68.460006 28.87373 L 68.460006 80.855035 C 68.460006 88.951593 65.00786 93.000006 58.103028 93.000006 L 50.864179 93.000006 C 44.017625 93.000006 40.594348 88.922723 40.594348 80.767889 L 40.594348 28.87373 L 49.185187 28.87373 L 49.185187 81.029599 C 49.185187 83.835024 50.43546 85.237736 52.935466 85.237736 L 56.402452 85.237736 C 58.728165 85.237736 59.891021 83.835024 59.891021 81.029599 L 59.891021 28.87373 Z M 76.49181 93.000006 L 76.49181 28.87373 L 97.75077 28.87373 L 97.75077 36.636269 L 85.082648 36.636269 L 85.082648 56.107236 L 96.333488 56.107236 L 96.333488 63.89136 L 85.082648 63.89136 L 85.082648 85.237736 L 97.75077 85.237736 L 97.75077 93.000006 Z M 131.684326 28.87373 L 121.327349 93.000006 L 111.144934 93.000006 L 100.787687 28.87373 L 109.269525 28.87373 L 116.246934 77.824324 L 123.202488 28.87373 Z M 144.72154 93.000006 L 136.152285 93.000006 L 136.152285 39.863129 C 136.152285 32.536863 139.575562 28.87373 146.422116 28.87373 L 152.854251 28.87373 C 159.700804 28.87373 163.124081 32.536863 163.124081 39.863129 L 163.124081 93.000006 L 154.555097 93.000006 L 154.555097 69.51678 L 144.72154 69.51678 Z M 154.555097 61.732656 L 154.555097 40.386549 C 154.555097 37.886273 153.305094 36.636269 150.804817 36.636269 L 148.471819 36.636269 C 145.971543 36.636269 144.72154 37.886273 144.72154 40.386549 L 144.72154 61.732656 Z M 201.427658 46.12097 L 201.427658 40.49555 C 201.427658 37.922696 200.177655 36.636269 197.677378 36.636269 L 196.347243 36.636269 C 193.905244 36.636269 192.68411 37.922696 192.68411 40.49555 L 192.68411 51.114238 C 192.68411 52.306233 192.916681 53.112948 193.381824 53.534382 C 193.861536 53.941517 194.639382 54.471952 195.715092 55.126228 L 203.848072 59.508659 C 205.621496 60.526361 206.878784 61.318506 207.620206 61.885365 C 208.375928 62.437654 208.957356 63.121069 209.364491 63.935068 C 209.785925 64.734498 209.996643 66.268066 209.996643 68.535771 L 209.996643 82.185171 C 209.996643 89.395151 206.544497 93.000006 199.639665 93.000006 L 194.363102 93.000006 C 187.516548 93.000006 184.093272 89.067878 184.093272 81.203892 L 184.093272 77.998617 L 192.68411 77.998617 L 192.68411 81.487457 C 192.68411 83.987463 193.963252 85.237736 196.521807 85.237736 L 198.026235 85.237736 C 200.29394 85.237736 201.427658 83.987463 201.427658 81.487457 L 201.427658 70.585205 C 201.427658 69.393209 201.187802 68.593779 200.70809 68.186914 C 200.228378 67.76521 199.458087 67.22749 198.396946 66.573215 L 190.263966 62.01622 C 188.475973 61.056796 187.182261 60.250081 186.382831 59.596075 C 185.583401 58.9418 185.001972 58.098662 184.638546 57.06666 C 184.27512 56.020089 184.093272 54.660815 184.093272 52.989378 L 184.093272 39.863129 C 184.093272 32.536863 187.516548 28.87373 194.363102 28.87373 L 199.727082 28.87373 C 206.573366 28.87373 209.996643 32.536863 209.996643 39.863129 L 209.996643 46.12097 Z M 217.134315 93.000006 L 217.134315 28.87373 L 238.393275 28.87373 L 238.393275 36.636269 L 225.725154 36.636269 L 225.725154 56.107236 L 236.975993 56.107236 L 236.975993 63.89136 L 225.725154 63.89136 L 225.725154 85.237736 L 238.393275 85.237736 L 238.393275 93.000006 Z M 244.548321 93.000006 L 244.548321 28.87373 L 259.462293 28.87373 C 267.500842 28.87373 271.520117 32.980421 271.520117 41.193264 L 271.520117 83.711453 C 271.520117 89.903732 268.09684 93.000006 261.250286 93.000006 Z M 253.139159 85.237736 L 259.549709 85.237736 C 261.817145 85.237736 262.951132 84.285597 262.951132 82.381318 L 262.951132 41.280411 C 262.951132 38.184137 261.67199 36.636269 259.113436 36.636269 L 253.139159 36.636269 Z M 279.106204 93.000006 L 279.106204 28.87373 L 300.365164 28.87373 L 300.365164 36.636269 L 287.697043 36.636269 L 287.697043 56.107236 L 298.947882 56.107236 L 298.947882 63.89136 L 287.697043 63.89136 L 287.697043 85.237736 L 300.365164 85.237736 L 300.365164 93.000006 Z M 315.983326 28.87373 L 314.914901 75.665619 L 307.697636 75.665619 L 306.52021 28.87373 Z M 315.983326 82.098024 L 315.983326 93.000006 L 306.890921 93.000006 L 306.890921 82.098024 Z M 315.983326 82.098024 " stroke="#fc4b08" stroke-width="0.893135" stroke-opacity="1" stroke-miterlimit="4"/></g></g></g></g></svg>